<svg id="Layer_1" data-name="Layer 1" xmlns="http://www.w3.org/2000/svg" viewBox="0 0 159.49 114.03"><path d="M134.09,63.91,156,22.24H140.43L93.13,114h15.53l17.21-34.72,17,34.72h16.63ZM127.21,0,110,34.72,93.06,0H76.39l25.43,50.12L79.91,91.79H95.44L142.78,0Z" transform="translate(0 0)"/><path d="M54.45,22.85V0H70.08V22.85H86V36.57H70.08V91.82H54.45V36.57H24.26a6.65,6.65,0,0,0-4.77,1.75,5.08,5.08,0,0,0-1.44,3.52,4.33,4.33,0,0,0,2.21,3.82c1,.64,1.92,1,5.27,2.72l8,4c3.52,1.75,6.87,3.52,9.42,6.24a16.52,16.52,0,0,1,5,12.45A22.38,22.38,0,0,1,42,86.39c-5.26,5.74-11.84,7.51-18.85,7.51-4.29,0-9.73-.67-14.53-4.32A26.56,26.56,0,0,1,0,77.3l12.78-6.07c.77,2.21,2.22,5.09,3.66,6.37a9.56,9.56,0,0,0,6.88,2.55,9.58,9.58,0,0,0,6.37-2.21,8,8,0,0,0,2.25-5.27,7.25,7.25,0,0,0-2.08-5.13,20.37,20.37,0,0,0-6.71-4.13l-5.74-2.72c-3.05-1.44-6.71-3.22-9.26-5.77A14.61,14.61,0,0,1,3.36,43.58,21.09,21.09,0,0,1,8.93,29.22c2.91-3,7.68-6.07,15.33-6.34Z" transform="translate(0 0)"/></svg>